<?xml version="1.0" encoding="UTF-8"?>
<svg version="1.1" id="Layer_1" xmlns="http://www.w3.org/2000/svg" xmlns:xlink="http://www.w3.org/1999/xlink" x="0px" y="0px" width="100%" viewBox="0 0 908 892" enable-background="new 0 0 908 892" xml:space="preserve" style="background: transparent;">

<path fill="#747371" opacity="1.000000" stroke="none" d=" M812.167725,364.862976   C816.923462,363.056152 821.679199,361.249298 827.682251,358.968597   C834.229187,367.861816 841.235596,377.247162 847.985291,386.813660   C848.491577,387.531158 847.484070,389.783875 846.633362,390.909729   C843.164612,395.500641 839.483093,399.930756 835.474792,404.807922   C832.685059,407.435608 828.157715,408.442139 830.068420,413.236389   C833.666016,422.263214 837.331848,431.264435 841.128723,440.208649   C841.739258,441.646912 843.174866,442.734863 844.229065,443.984741   C852.023804,444.646790 859.809631,445.615356 867.617065,445.843689   C871.617188,445.960693 873.231018,447.417694 873.643433,451.156006   C874.682739,460.575409 875.786133,469.989136 877.016663,479.385132   C877.426819,482.516876 876.083069,483.826630 873.271118,484.696075   C866.117920,486.908020 858.959473,489.155884 851.989868,491.869263   C850.359009,492.504181 848.679016,494.909363 848.371826,496.728119   C846.822937,505.897278 845.899475,515.171936 844.358459,524.342773   C843.862488,527.294617 844.450439,528.861877 846.935364,530.456543   C853.100098,534.412903 859.012085,538.761536 865.142761,542.773499   C867.557129,544.353455 868.699341,545.939514 867.422852,548.858643   C863.358398,558.153320 859.505615,567.542542 855.283936,576.763733   C854.811462,577.795715 852.386292,578.673767 851.062195,578.452637   C843.844604,577.247253 836.657471,575.809509 829.523804,574.172729   C825.943909,573.351379 823.884583,574.331116 821.692932,577.392639   C816.471069,584.686829 810.803345,591.675537 805.057983,598.572876   C803.296448,600.687622 802.911804,602.281555 804.143738,604.744751   C807.569092,611.594055 810.896912,618.500916 813.940552,625.524902   C814.543762,626.916931 814.377991,629.783142 813.432129,630.527222   C804.937317,637.209961 796.201538,643.587646 787.485962,649.986023   C786.919006,650.402222 785.934875,650.250244 784.562866,649.988647   C777.850952,644.021790 771.821899,638.309998 765.494324,632.950500   C764.411560,632.033447 761.830627,632.034546 760.322815,632.609985   C751.486572,635.982178 742.804016,639.756042 733.978027,643.156738   C731.298828,644.188965 730.078247,645.486816 729.932068,648.499573   C729.561951,656.129578 728.922485,663.757202 728.015381,671.340881   C727.848999,672.732483 726.132019,674.626770 724.751099,675.049683   C721.286987,676.110596 717.602905,676.447693 714.011597,677.100220   C708.378174,678.123840 702.748474,679.168213 696.919189,679.849487   C692.107361,679.710327 690.226807,677.008972 689.061035,672.941040   C687.274963,666.708496 684.972107,660.625793 683.066162,654.424988   C682.162109,651.483521 680.566345,650.334656 677.393982,650.001099   C668.324768,649.047485 659.287354,647.723755 650.282104,646.269043   C647.407593,645.804626 645.640503,646.372986 644.026245,648.859070   C640.040405,654.998047 635.649231,660.875977 631.726074,667.052673   C629.939453,669.865601 628.128906,670.484619 625.140686,669.192993   C617.053589,665.697327 608.992249,662.104126 600.732910,659.058899   C595.747559,657.220825 595.308716,654.107910 596.324524,649.706116   C597.856812,643.066650 599.321899,636.399658 600.406799,629.678345   C600.645508,628.199768 599.621277,625.893433 598.412537,624.906921   C590.944336,618.811951 583.162537,613.100952 575.701538,606.997559   C573.544189,605.232788 571.929077,604.958008 569.497192,606.181458   C562.808350,609.546814 555.964905,612.604919 549.273682,615.966003   C546.782898,617.217163 544.978760,617.117188 543.253052,614.804016   C537.186890,606.673157 530.941772,598.671875 525.078918,590.398682   C524.387939,589.423645 525.107483,586.629456 526.089844,585.427979   C530.721436,579.763184 535.632263,574.323425 540.529175,568.880432   C542.490112,566.700806 543.029175,564.820618 541.683167,561.811218   C537.886169,553.321960 534.760986,544.533203 531.013916,536.019653   C530.276550,534.344238 528.063660,532.471924 526.319702,532.232666   C518.917480,531.217163 511.445221,530.576416 503.978485,530.227234   C500.540924,530.066528 499.341125,528.650452 498.996063,525.487854   C498.041565,516.740112 496.737091,508.028046 495.909790,499.269836   C495.441833,494.316193 494.780426,489.932098 489.963104,486.960236   C480.977844,481.417175 472.247589,481.539581 463.066620,486.495850   C448.816193,494.188843 438.936066,492.384674 428.379181,480.643555   C419.789642,471.090454 408.940155,468.854126 397.807037,475.257416   C388.604156,480.550476 379.540497,482.052429 369.913361,477.166962   C366.573151,480.256866 368.393555,482.591339 370.578400,484.904510   C376.137451,490.790070 381.687408,496.684235 387.622803,502.979950   C380.619934,512.916809 373.940918,522.394165 367.220154,531.930786   C358.715820,528.253723 350.874908,525.051514 343.219116,521.455261   C340.399078,520.130554 338.839081,520.853455 336.719238,522.745239   C330.272095,528.498962 323.731995,534.176575 316.893463,539.449829   C314.122772,541.586304 313.124481,543.360046 314.116852,546.813049   C315.997650,553.357605 317.286041,560.070190 319.056885,566.649353   C319.865326,569.652893 319.520416,571.551147 316.380676,572.923218   C308.156189,576.517517 300.011505,580.301025 291.908142,584.162598   C288.762329,585.661743 286.676758,584.975708 284.724243,582.171082   C280.920410,576.707336 276.728455,571.508850 273.035583,565.974731   C271.050415,562.999756 268.996674,562.468628 265.574646,563.205688   C256.979095,565.057007 248.245117,566.261230 239.635040,568.053528   C237.943726,568.405518 235.710968,569.933899 235.179626,571.433960   C232.739655,578.322083 230.738831,585.371155 228.744736,592.409058   C228.008759,595.006470 226.894760,596.411682 223.913132,596.080994   C214.342499,595.019409 204.737259,594.248230 195.191162,593.011658   C193.868088,592.840210 191.986038,590.815308 191.755417,589.418518   C190.592590,582.375549 189.725250,575.270813 189.105820,568.157166   C188.840714,565.112610 188.029678,563.624084 184.804199,562.600891   C176.416000,559.939941 168.161545,556.796509 160.028351,553.424438   C157.071289,552.198364 155.161285,552.447449 152.956253,554.605713   C147.482681,559.963196 141.819046,565.126099 136.318512,570.456665   C135.305496,571.438354 134.700287,572.840759 133.674240,573.786865   C132.159714,571.943909 131.129395,570.029663 129.552582,568.839478   C122.516739,563.528931 115.387115,558.335754 108.153488,553.298096   C105.810127,551.666077 105.890686,550.205078 106.978073,547.885071   C110.013184,541.409485 112.724281,534.782532 115.727226,528.291199   C116.997223,525.545837 116.727264,523.654358 114.572662,521.256958   C108.577354,514.586243 102.854317,507.654999 97.323181,500.592194   C95.585350,498.373077 94.202766,497.836182 91.504616,498.583923   C84.622246,500.491272 77.621857,501.969177 70.687805,503.695740   C68.252289,504.302155 66.227402,504.580872 64.921936,501.665649   C61.048771,493.016449 57.090939,484.402679 52.996906,475.856171   C51.530075,472.794098 52.513580,471.114014 55.091602,469.330566   C60.975342,465.260284 66.742126,461.008026 72.371826,456.594208   C73.520409,455.693695 74.642960,453.643372 74.445770,452.321777   C73.025459,442.802368 71.403458,433.305237 69.472252,423.877441   C69.138931,422.250305 67.292496,420.244965 65.698074,419.683533   C58.805904,417.256622 51.795322,415.120026 44.726673,413.262756   C41.861637,412.509979 40.857979,411.211334 41.146484,408.421417   C42.102127,399.180267 43.120934,389.942291 43.839355,380.681671   C44.103405,377.278015 45.572441,376.192688 48.806610,375.944641   C55.599277,375.423553 62.351997,374.393585 69.142136,373.822479   C72.435280,373.545471 73.896568,372.050934 74.933800,368.921692   C77.701797,360.570831 80.965378,352.384979 83.945694,344.102539   C84.273155,343.192474 84.040482,342.080872 84.067604,341.062744   C83.436607,339.803925 83.044701,338.328735 82.134300,337.322784   C77.561470,332.269867 72.960922,327.231689 68.142639,322.415955   C66.030960,320.305389 65.499771,318.656281 67.344734,316.068024   C70.619621,311.473755 73.620178,306.681763 76.668785,301.929688   C77.537727,300.575256 78.176285,299.073029 79.355362,297.303223   C80.604401,296.178131 81.596619,295.504578 82.201241,294.578064   C84.547958,290.981995 87.070389,290.027710 91.263039,292.259705   C97.107918,295.371429 103.310570,297.868256 109.523048,300.192780   C111.103851,300.784241 113.796532,300.368164 115.130470,299.327850   C122.321304,293.719818 129.143799,287.640411 136.315903,282.006958   C138.824921,280.036194 139.354233,278.235901 138.532410,275.229370   C136.652222,268.351135 135.008347,261.395355 133.659271,254.395752   C133.387161,252.983932 134.407944,250.368744 135.571701,249.787079   C144.029816,245.559723 152.705551,241.770721 161.249374,237.710327   C164.233765,236.292023 166.070923,237.060120 167.925644,239.689590   C172.702576,246.461929 177.728409,253.058716 182.847290,259.986176   C187.222473,258.600983 191.448425,257.263062 196.132706,255.992462   C202.639465,255.364624 208.701538,254.762894 214.723022,253.883255   C215.738770,253.734894 217.116547,252.551620 217.416794,251.568512   C220.061096,242.910477 222.499268,234.189499 225.028717,225.282959   C225.240311,224.826706 225.483658,224.728653 226.086548,225.101288   C227.357727,225.577209 228.325790,225.801590 229.305878,225.885437   C237.742767,226.607162 246.183426,227.284790 254.619476,228.015823   C258.482178,228.350540 261.356445,229.142044 261.477234,234.325043   C261.627258,240.763870 263.366760,247.156036 263.680359,253.604309   C263.869019,257.483887 265.841766,258.705597 268.869385,259.762024   C276.862152,262.550964 284.878571,265.296448 292.739563,268.425934   C295.689941,269.600494 297.503998,269.201416 299.728485,267.026978   C305.642914,261.245575 311.820374,255.733322 318.439484,249.608612   C327.240387,255.943329 335.828278,262.188202 344.496429,268.319489   C346.670898,269.857574 346.913116,271.340729 345.801178,273.740112   C342.723358,280.381500 339.710815,287.071594 337.148712,293.920624   C336.502808,295.647247 336.945282,298.584564 338.078003,300.037231   C343.689545,307.233673 349.798828,314.039886 355.508850,321.163086   C357.195312,323.266907 358.563843,323.977203 361.312836,323.212250   C367.872437,321.386902 374.609802,320.203949 381.179871,318.411530   C384.893036,317.398438 387.022278,318.227936 388.588745,321.842072   C392.089813,329.919495 395.780518,337.921173 399.641876,345.832733   C401.138367,348.898804 400.333252,350.677216 397.761658,352.479401   C392.039612,356.489380 386.505127,360.767975 380.762329,364.746735   C378.373535,366.401703 377.793091,368.015015 378.413788,370.986053   C380.244415,379.748383 381.423279,388.645874 383.191925,397.423035   C383.533386,399.117432 385.086212,401.330536 386.603455,401.893036   C393.145020,404.318024 399.795929,406.577423 406.575653,408.186798   C411.381805,409.327698 412.053741,412.121735 411.650513,416.172028   C411.144958,421.250458 410.783875,426.343231 410.362671,431.402679   C426.974823,433.892456 426.950562,433.919586 439.767853,445.382843   C446.141174,451.082855 453.653656,452.351959 461.673798,450.094696   C464.990326,449.161255 468.080231,447.352539 471.195770,445.787720   C482.030640,440.345612 492.574005,442.527771 501.102173,451.204987   C504.850281,455.018555 509.294769,458.757599 514.153625,460.737457   C523.121338,464.391541 525.643982,462.575623 527.739197,453.429596   C527.813538,453.105072 527.826538,452.757996 527.949707,452.454437   C529.245728,449.259308 528.012024,447.394989 525.184021,445.586395   C518.061707,441.031586 511.174072,436.109680 503.467468,430.839142   C508.342712,419.436157 513.136719,408.223175 517.878052,397.133514   C527.624878,399.016907 536.250549,400.794556 544.930359,402.248962   C546.334839,402.484283 548.545166,401.746063 549.423035,400.672729   C555.627808,393.086182 561.507874,385.234955 567.663391,377.606873   C569.388733,375.468781 569.482056,373.786499 568.251099,371.362915   C564.785095,364.539062 561.503784,357.613892 558.425964,350.607300   C557.866882,349.334503 557.996765,346.706085 558.855347,346.027008   C567.066528,339.532471 575.430847,333.221100 583.968201,327.162933   C585.007507,326.425476 587.814209,326.885529 588.967224,327.820129   C594.650146,332.426453 600.192200,337.232269 605.492615,342.273956   C608.070374,344.725922 610.062561,344.930511 613.344482,343.435486   C621.653381,339.650604 630.281494,336.571655 638.666748,332.944275   C640.123108,332.314240 641.851990,330.488342 642.031555,329.038574   C642.970337,321.457733 643.255371,313.795013 644.230652,306.220337   C644.465210,304.398743 646.240173,301.560547 647.681030,301.305664   C657.321655,299.600037 667.065918,298.483856 676.771301,297.138519   C679.910034,296.703461 681.620728,297.850403 682.579346,301.020813   C684.745422,308.184875 687.129761,315.293274 689.762634,322.297485   C690.320374,323.781281 692.184631,325.535339 693.676331,325.783081   C703.328430,327.385925 713.031006,328.718292 722.751465,329.842163   C724.392334,330.031891 726.860291,329.302124 727.807556,328.100067   C730.778076,324.330505 733.204834,320.132507 736.114319,315.888184   C738.708252,312.457977 741.030090,309.240021 743.867798,305.307037   C754.184937,309.848938 764.407715,314.217804 774.464783,318.939697   C775.751648,319.543945 776.175232,321.986694 776.998779,323.577728   C776.722900,326.017395 776.446960,328.457062 775.823730,331.432007   C774.305115,336.953430 772.882324,341.901581 772.119019,346.949463   C771.895752,348.425690 773.136719,350.690552 774.410950,351.732574   C781.853516,357.818787 789.476196,363.687256 797.120300,369.521484   C798.180847,370.330933 800.041382,371.308685 800.940735,370.901947   C804.803406,369.155121 808.445374,366.920135 812.167725,364.862976  M149.004807,326.006348   C149.004807,326.006348 149.069946,326.021637 148.370544,325.859680   C147.690018,326.322510 146.926376,326.698761 146.340958,327.260651   C126.397575,346.403320 114.295769,369.666260 111.388916,397.139313   C109.563042,414.395782 110.389763,431.689911 117.364594,448.798889   C122.188446,465.142761 131.160690,479.168427 142.956879,491.106476   C168.481491,516.937988 199.560013,528.839355 235.977661,526.105286   C260.881592,524.235657 282.983093,515.108887 301.567291,498.650543   C330.980072,472.602478 344.761810,439.861755 341.171295,400.320282   C337.965607,365.017212 321.517151,337.190094 293.032349,316.555023   C266.399994,297.261932 236.393906,291.414734 204.369553,297.334564   C184.122299,301.077332 165.724197,309.529724 149.899277,324.324890   C149.603500,324.907562 149.307724,325.490204 149.004807,326.006348  M766.203186,400.561157   C764.665894,398.863495 763.355042,396.864868 761.557983,395.512360   C720.980164,364.973267 677.018250,359.455505 631.748901,382.192932   C592.688904,401.811554 570.843079,435.400360 567.348938,479.101532   C563.965393,521.419434 579.825745,556.564697 613.377808,582.595459   C644.349731,606.624512 679.567688,612.820190 717.571716,603.342834   C729.969788,600.251038 741.152283,594.466309 752.582153,587.610779   C766.759277,577.643311 779.187805,565.817200 787.837891,550.755676   C811.375977,509.771393 811.936646,468.322021 788.693909,426.979401   C783.081055,416.995697 776.123962,407.865112 766.203186,400.561157  z"/>
<path fill="#020101" opacity="1.000000" stroke="none" d=" M225.789032,224.784607   C225.483658,224.728653 225.240311,224.826706 224.758575,225.526337   C218.479691,231.813156 212.387558,237.541901 206.562927,243.530823   C202.733734,247.468063 199.290482,251.780640 195.674377,255.925140   C191.448425,257.263062 187.222473,258.600983 182.847290,259.986176   C177.728409,253.058716 172.702576,246.461929 167.925644,239.689590   C166.070923,237.060120 164.233765,236.292023 161.249374,237.710327   C152.705551,241.770721 144.029816,245.559723 135.571701,249.787079   C134.407944,250.368744 133.387161,252.983932 133.659271,254.395752   C135.008347,261.395355 136.652222,268.351135 138.532410,275.229370   C139.354233,278.235901 138.824921,280.036194 136.315903,282.006958   C129.143799,287.640411 122.321304,293.719818 115.130470,299.327850   C113.796532,300.368164 111.103851,300.784241 109.523048,300.192780   C103.310570,297.868256 97.107918,295.371429 91.263039,292.259705   C87.070389,290.027710 84.547958,290.981995 82.201241,294.578064   C81.596619,295.504578 80.604401,296.178131 79.447662,296.946320   C75.475769,269.378815 77.605713,242.388657 87.852837,216.422272   C106.005554,170.422958 139.783630,142.586945 187.872482,132.145493   C218.827682,125.424263 249.093079,129.536026 278.808258,139.418915   C281.303101,140.248657 283.768707,141.166229 286.403564,142.098053   C294.882996,121.685043 305.927673,103.198593 320.395691,86.874756   C345.842499,58.163902 376.882172,39.374729 415.548492,35.419521   C448.219025,32.077629 478.351379,40.243134 505.463043,58.721752   C535.942749,79.496002 556.934387,107.942314 571.116638,141.696442   C571.559265,142.749908 572.047546,143.784164 572.630066,145.085495   C577.826538,143.377426 582.822571,141.669159 587.859253,140.090469   C619.600525,130.141525 651.832153,128.349869 683.843872,137.421066   C730.164429,150.547012 761.668884,180.220673 776.881104,226.185760   C787.505127,258.287262 786.418945,290.710205 777.320007,323.329102   C776.175232,321.986694 775.751648,319.543945 774.464783,318.939697   C764.407715,314.217804 754.184937,309.848938 743.867798,305.307037   C741.030090,309.240021 738.708252,312.457977 735.842407,315.676453   C735.008301,314.904388 734.806274,314.083923 734.415588,313.366150   C703.350891,256.292267 659.358276,212.053375 602.421875,180.757034   C559.596008,157.216843 513.573425,144.401337 464.940765,141.223358   C429.461578,138.904922 394.515503,142.809570 360.118164,152.017792   C309.502563,165.567673 264.839935,189.959732 225.789032,224.784607  z"/>
<path fill="#020201" opacity="1.000000" stroke="none" d=" M697.117188,680.203796   C702.748474,679.168213 708.378174,678.123840 714.011597,677.100220   C717.602905,676.447693 721.286987,676.110596 724.751099,675.049683   C726.132019,674.626770 727.848999,672.732483 728.015381,671.340881   C728.922485,663.757202 729.561951,656.129578 729.932068,648.499573   C730.078247,645.486816 731.298828,644.188965 733.978027,643.156738   C742.804016,639.756042 751.486572,635.982178 760.322815,632.609985   C761.830627,632.034546 764.411560,632.033447 765.494324,632.950500   C771.821899,638.309998 777.850952,644.021790 784.187866,649.911377   C783.725037,677.938477 776.777527,703.880493 761.419861,727.135803   C740.176392,759.303894 710.007507,778.680969 672.650635,786.892334   C636.529602,794.832153 601.171204,790.866150 566.519897,778.716187   C565.761047,778.450134 565.013611,778.151489 564.244995,777.862122   C559.062073,786.228882 554.328979,794.605469 548.900391,802.503906   C526.821106,834.628845 497.724060,857.525635 459.637451,867.398987   C432.840485,874.345825 406.121338,872.714722 380.193329,862.578552   C340.236572,846.957947 312.634247,818.062195 292.902527,780.808167   C292.123962,779.338196 291.402344,777.837952 290.612976,776.373962   C290.467041,776.103210 290.123077,775.939209 290.587250,776.331116   C276.112854,778.796082 262.328888,782.123596 248.360458,783.350586   C191.825394,788.316589 137.305084,760.677917 111.845001,706.306824   C97.336525,675.323303 94.095734,642.810181 98.473480,609.278748   C98.857414,606.337952 98.176544,605.271484 95.740318,604.008789   C67.574905,589.410217 44.072598,569.566162 26.809540,542.658081   C-4.825141,493.348724 -1.823343,430.815094 34.363083,384.818268   C48.114620,367.338593 64.571358,353.000061 83.762222,341.212921   C84.040482,342.080872 84.273155,343.192474 83.945694,344.102539   C80.965378,352.384979 77.701797,360.570831 74.933800,368.921692   C73.896568,372.050934 72.435280,373.545471 69.142136,373.822479   C62.351997,374.393585 55.599277,375.423553 48.806610,375.944641   C45.572441,376.192688 44.103405,377.278015 43.839355,380.681671   C43.120934,389.942291 42.102127,399.180267 41.146484,408.421417   C40.857979,411.211334 41.861637,412.509979 44.726673,413.262756   C51.795322,415.120026 58.805904,417.256622 65.698074,419.683533   C67.292496,420.244965 69.138931,422.250305 69.472252,423.877441   C71.403458,433.305237 73.025459,442.802368 74.445770,452.321777   C74.642960,453.643372 73.520409,455.693695 72.371826,456.594208   C66.742126,461.008026 60.975342,465.260284 55.091602,469.330566   C52.513580,471.114014 51.530075,472.794098 52.996906,475.856171   C57.090939,484.402679 61.048771,493.016449 64.921936,501.665649   C66.227402,504.580872 68.252289,504.302155 70.687805,503.695740   C77.621857,501.969177 84.622246,500.491272 91.504616,498.583923   C94.202766,497.836182 95.585350,498.373077 97.323181,500.592194   C102.854317,507.654999 108.577354,514.586243 114.572662,521.256958   C116.727264,523.654358 116.997223,525.545837 115.727226,528.291199   C112.724281,534.782532 110.013184,541.409485 106.978073,547.885071   C105.890686,550.205078 105.810127,551.666077 108.153488,553.298096   C115.387115,558.335754 122.516739,563.528931 129.552582,568.839478   C131.129395,570.029663 132.159714,571.943909 133.754807,574.154236   C148.851532,617.848267 171.160522,656.630920 201.984497,690.095825   C257.717560,750.603882 326.739166,786.022217 408.427368,795.787048   C455.306763,801.390930 501.449005,796.594910 546.410461,781.822815   C606.224365,762.171082 656.461060,728.283630 697.117188,680.203796  z"/>
<path fill="#050505" opacity="1.000000" stroke="none" d=" M812.004517,364.570557   C808.445374,366.920135 804.803406,369.155121 800.940735,370.901947   C800.041382,371.308685 798.180847,370.330933 797.120300,369.521484   C789.476196,363.687256 781.853516,357.818787 774.410950,351.732574   C773.136719,350.690552 771.895752,348.425690 772.119019,346.949463   C772.882324,341.901581 774.305115,336.953430 775.845337,331.803436   C789.764954,340.690765 801.474060,351.752106 812.004517,364.570557  z"/>
<path fill="#0E0E0E" opacity="1.000000" stroke="none" d=" M844.216858,443.531158   C843.174866,442.734863 841.739258,441.646912 841.128723,440.208649   C837.331848,431.264435 833.666016,422.263214 830.068420,413.236389   C828.157715,408.442139 832.685059,407.435608 835.403687,405.174103   C838.559998,417.794189 841.382324,430.435883 844.216858,443.531158  z"/>
<path fill="#FEDE5A" opacity="1.000000" stroke="none" d=" M226.086548,225.101288   C264.839935,189.959732 309.502563,165.567673 360.118164,152.017792   C394.515503,142.809570 429.461578,138.904922 464.940765,141.223358   C513.573425,144.401337 559.596008,157.216843 602.421875,180.757034   C659.358276,212.053375 703.350891,256.292267 734.415588,313.366150   C734.806274,314.083923 735.008301,314.904388 735.570312,315.888672   C733.204834,320.132507 730.778076,324.330505 727.807556,328.100067   C726.860291,329.302124 724.392334,330.031891 722.751465,329.842163   C713.031006,328.718292 703.328430,327.385925 693.676331,325.783081   C692.184631,325.535339 690.320374,323.781281 689.762634,322.297485   C687.129761,315.293274 684.745422,308.184875 682.579346,301.020813   C681.620728,297.850403 679.910034,296.703461 676.771301,297.138519   C667.065918,298.483856 657.321655,299.600037 647.681030,301.305664   C646.240173,301.560547 644.465210,304.398743 644.230652,306.220337   C643.255371,313.795013 642.970337,321.457733 642.031555,329.038574   C641.851990,330.488342 640.123108,332.314240 638.666748,332.944275   C630.281494,336.571655 621.653381,339.650604 613.344482,343.435486   C610.062561,344.930511 608.070374,344.725922 605.492615,342.273956   C600.192200,337.232269 594.650146,332.426453 588.967224,327.820129   C587.814209,326.885529 585.007507,326.425476 583.968201,327.162933   C575.430847,333.221100 567.066528,339.532471 558.855347,346.027008   C557.996765,346.706085 557.866882,349.334503 558.425964,350.607300   C561.503784,357.613892 564.785095,364.539062 568.251099,371.362915   C569.482056,373.786499 569.388733,375.468781 567.663391,377.606873   C561.507874,385.234955 555.627808,393.086182 549.423035,400.672729   C548.545166,401.746063 546.334839,402.484283 544.930359,402.248962   C536.250549,400.794556 527.624878,399.016907 517.878052,397.133514   C513.136719,408.223175 508.342712,419.436157 503.467468,430.839142   C511.174072,436.109680 518.061707,441.031586 525.184021,445.586395   C528.012024,447.394989 529.245728,449.259308 527.949707,452.454437   C527.826538,452.757996 527.813538,453.105072 527.739197,453.429596   C525.643982,462.575623 523.121338,464.391541 514.153625,460.737457   C509.294769,458.757599 504.850281,455.018555 501.102173,451.204987   C492.574005,442.527771 482.030640,440.345612 471.195770,445.787720   C468.080231,447.352539 464.990326,449.161255 461.673798,450.094696   C453.653656,452.351959 446.141174,451.082855 439.767853,445.382843   C426.950562,433.919586 426.974823,433.892456 410.362671,431.402679   C410.783875,426.343231 411.144958,421.250458 411.650513,416.172028   C412.053741,412.121735 411.381805,409.327698 406.575653,408.186798   C399.795929,406.577423 393.145020,404.318024 386.603455,401.893036   C385.086212,401.330536 383.533386,399.117432 383.191925,397.423035   C381.423279,388.645874 380.244415,379.748383 378.413788,370.986053   C377.793091,368.015015 378.373535,366.401703 380.762329,364.746735   C386.505127,360.767975 392.039612,356.489380 397.761658,352.479401   C400.333252,350.677216 401.138367,348.898804 399.641876,345.832733   C395.780518,337.921173 392.089813,329.919495 388.588745,321.842072   C387.022278,318.227936 384.893036,317.398438 381.179871,318.411530   C374.609802,320.203949 367.872437,321.386902 361.312836,323.212250   C358.563843,323.977203 357.195312,323.266907 355.508850,321.163086   C349.798828,314.039886 343.689545,307.233673 338.078003,300.037231   C336.945282,298.584564 336.502808,295.647247 337.148712,293.920624   C339.710815,287.071594 342.723358,280.381500 345.801178,273.740112   C346.913116,271.340729 346.670898,269.857574 344.496429,268.319489   C335.828278,262.188202 327.240387,255.943329 318.439484,249.608612   C311.820374,255.733322 305.642914,261.245575 299.728485,267.026978   C297.503998,269.201416 295.689941,269.600494 292.739563,268.425934   C284.878571,265.296448 276.862152,262.550964 268.869385,259.762024   C265.841766,258.705597 263.869019,257.483887 263.680359,253.604309   C263.366760,247.156036 261.627258,240.763870 261.477234,234.325043   C261.356445,229.142044 258.482178,228.350540 254.619476,228.015823   C246.183426,227.284790 237.742767,226.607162 229.305878,225.885437   C228.325790,225.801590 227.357727,225.577209 226.086548,225.101288  z"/>
<path fill="#FDDD5B" opacity="1.000000" stroke="none" d=" M696.919189,679.849487   C656.461060,728.283630 606.224365,762.171082 546.410461,781.822815   C501.449005,796.594910 455.306763,801.390930 408.427368,795.787048   C326.739166,786.022217 257.717560,750.603882 201.984497,690.095825   C171.160522,656.630920 148.851532,617.848267 133.987442,574.416382   C134.700287,572.840759 135.305496,571.438354 136.318512,570.456665   C141.819046,565.126099 147.482681,559.963196 152.956253,554.605713   C155.161285,552.447449 157.071289,552.198364 160.028351,553.424438   C168.161545,556.796509 176.416000,559.939941 184.804199,562.600891   C188.029678,563.624084 188.840714,565.112610 189.105820,568.157166   C189.725250,575.270813 190.592590,582.375549 191.755417,589.418518   C191.986038,590.815308 193.868088,592.840210 195.191162,593.011658   C204.737259,594.248230 214.342499,595.019409 223.913132,596.080994   C226.894760,596.411682 228.008759,595.006470 228.744736,592.409058   C230.738831,585.371155 232.739655,578.322083 235.179626,571.433960   C235.710968,569.933899 237.943726,568.405518 239.635040,568.053528   C248.245117,566.261230 256.979095,565.057007 265.574646,563.205688   C268.996674,562.468628 271.050415,562.999756 273.035583,565.974731   C276.728455,571.508850 280.920410,576.707336 284.724243,582.171082   C286.676758,584.975708 288.762329,585.661743 291.908142,584.162598   C300.011505,580.301025 308.156189,576.517517 316.380676,572.923218   C319.520416,571.551147 319.865326,569.652893 319.056885,566.649353   C317.286041,560.070190 315.997650,553.357605 314.116852,546.813049   C313.124481,543.360046 314.122772,541.586304 316.893463,539.449829   C323.731995,534.176575 330.272095,528.498962 336.719238,522.745239   C338.839081,520.853455 340.399078,520.130554 343.219116,521.455261   C350.874908,525.051514 358.715820,528.253723 367.220154,531.930786   C373.940918,522.394165 380.619934,512.916809 387.622803,502.979950   C381.687408,496.684235 376.137451,490.790070 370.578400,484.904510   C368.393555,482.591339 366.573151,480.256866 369.913361,477.166962   C379.540497,482.052429 388.604156,480.550476 397.807037,475.257416   C408.940155,468.854126 419.789642,471.090454 428.379181,480.643555   C438.936066,492.384674 448.816193,494.188843 463.066620,486.495850   C472.247589,481.539581 480.977844,481.417175 489.963104,486.960236   C494.780426,489.932098 495.441833,494.316193 495.909790,499.269836   C496.737091,508.028046 498.041565,516.740112 498.996063,525.487854   C499.341125,528.650452 500.540924,530.066528 503.978485,530.227234   C511.445221,530.576416 518.917480,531.217163 526.319702,532.232666   C528.063660,532.471924 530.276550,534.344238 531.013916,536.019653   C534.760986,544.533203 537.886169,553.321960 541.683167,561.811218   C543.029175,564.820618 542.490112,566.700806 540.529175,568.880432   C535.632263,574.323425 530.721436,579.763184 526.089844,585.427979   C525.107483,586.629456 524.387939,589.423645 525.078918,590.398682   C530.941772,598.671875 537.186890,606.673157 543.253052,614.804016   C544.978760,617.117188 546.782898,617.217163 549.273682,615.966003   C555.964905,612.604919 562.808350,609.546814 569.497192,606.181458   C571.929077,604.958008 573.544189,605.232788 575.701538,606.997559   C583.162537,613.100952 590.944336,618.811951 598.412537,624.906921   C599.621277,625.893433 600.645508,628.199768 600.406799,629.678345   C599.321899,636.399658 597.856812,643.066650 596.324524,649.706116   C595.308716,654.107910 595.747559,657.220825 600.732910,659.058899   C608.992249,662.104126 617.053589,665.697327 625.140686,669.192993   C628.128906,670.484619 629.939453,669.865601 631.726074,667.052673   C635.649231,660.875977 640.040405,654.998047 644.026245,648.859070   C645.640503,646.372986 647.407593,645.804626 650.282104,646.269043   C659.287354,647.723755 668.324768,649.047485 677.393982,650.001099   C680.566345,650.334656 682.162109,651.483521 683.066162,654.424988   C684.972107,660.625793 687.274963,666.708496 689.061035,672.941040   C690.226807,677.008972 692.107361,679.710327 696.919189,679.849487  M515.586853,770.036560   C515.785461,769.995667 515.984070,769.954773 516.950439,769.742065   C517.300964,768.378662 517.957275,767.015503 517.958252,765.651855   C518.008301,695.173462 518.011841,624.695007 517.936584,554.216614   C517.935120,552.815186 516.942810,551.414856 516.104004,549.219482   C514.571655,548.828125 513.039673,548.096375 511.506836,548.094543   C456.185577,548.028137 400.864166,548.062012 345.543030,547.955872   C341.484924,547.948120 339.977692,549.143616 339.983948,553.358582   C340.088318,623.843201 340.056335,694.328003 340.157410,764.812683   C340.159607,766.347046 341.369080,767.879639 342.266388,770.112976   C344.163330,770.409363 346.060089,770.963074 347.957306,770.964722   C401.882355,771.012146 455.807404,771.011841 509.732452,770.969604   C511.485992,770.968201 513.239136,770.445251 515.586853,770.036560  z"/>
<path fill="#FDDD5A" opacity="1.000000" stroke="none" d=" M150.522827,323.958496   C165.724197,309.529724 184.122299,301.077332 204.369553,297.334564   C236.393906,291.414734 266.399994,297.261932 293.032349,316.555023   C321.517151,337.190094 337.965607,365.017212 341.171295,400.320282   C344.761810,439.861755 330.980072,472.602478 301.567291,498.650543   C282.983093,515.108887 260.881592,524.235657 235.977661,526.105286   C199.560013,528.839355 168.481491,516.937988 142.956879,491.106476   C131.160690,479.168427 122.188446,465.142761 117.284119,448.157867   C117.283508,447.300354 117.363358,447.083862 117.604942,446.799530   C117.912819,446.469147 117.849716,446.273895 117.622803,445.682312   C119.546890,419.775452 123.902557,394.762268 132.091324,370.589569   C137.188492,355.543091 143.373291,340.865051 149.069946,326.021637   C149.069946,326.021637 149.004807,326.006348 149.313873,325.893341   C149.922913,325.173065 150.222870,324.565765 150.522827,323.958496  M243.825546,426.785553   C238.235443,417.862366 230.161835,412.269806 219.998444,410.083466   C205.742249,407.016663 190.918564,413.485962 182.807907,425.793976   C175.008408,437.629822 175.006271,454.201141 182.802734,465.332367   C191.805130,478.185333 206.307526,484.012573 221.131012,480.556244   C244.497208,475.108002 256.266266,449.149719 243.825546,426.785553  z"/>
<path fill="#FDDD5A" opacity="1.000000" stroke="none" d=" M752.034851,587.990784   C741.152283,594.466309 729.969788,600.251038 717.571716,603.342834   C679.567688,612.820190 644.349731,606.624512 613.377808,582.595459   C579.825745,556.564697 563.965393,521.419434 567.348938,479.101532   C570.843079,435.400360 592.688904,401.811554 631.748901,382.192932   C677.018250,359.455505 720.980164,364.973267 761.557983,395.512360   C763.355042,396.864868 764.665894,398.863495 766.543701,401.167847   C768.376343,411.126373 770.243835,420.436188 771.297729,429.837189   C776.666565,477.729614 772.791138,524.763611 757.628113,570.684326   C755.727234,576.441162 753.897522,582.221375 752.034851,587.990784  M645.132812,493.525940   C633.670288,501.004364 627.468140,511.371155 627.927246,525.272522   C628.405701,539.760010 635.339600,550.463928 648.225830,556.644104   C661.503113,563.011841 674.668518,561.589600 686.206970,552.355713   C697.363708,543.427246 701.869812,531.390869 699.124451,517.242188   C694.450073,493.152100 667.108032,480.776581 645.132812,493.525940  z"/>
<path fill="#040302" opacity="1.000000" stroke="none" d=" M752.308472,587.800781   C753.897522,582.221375 755.727234,576.441162 757.628113,570.684326   C772.791138,524.763611 776.666565,477.729614 771.297729,429.837189   C770.243835,420.436188 768.376343,411.126373 766.807739,401.352661   C776.123962,407.865112 783.081055,416.995697 788.693909,426.979401   C811.936646,468.322021 811.375977,509.771393 787.837891,550.755676   C779.187805,565.817200 766.759277,577.643311 752.308472,587.800781  z"/>
<path fill="#090704" opacity="1.000000" stroke="none" d=" M117.443207,446.867371   C117.363358,447.083862 117.283508,447.300354 117.099670,447.848511   C110.389763,431.689911 109.563042,414.395782 111.388916,397.139313   C114.295769,369.666260 126.397575,346.403320 146.340958,327.260651   C146.926376,326.698761 147.690018,326.322510 148.720245,325.940674   C143.373291,340.865051 137.188492,355.543091 132.091324,370.589569   C123.902557,394.762268 119.546890,419.775452 117.454559,445.745605   C117.240898,446.272491 117.169220,446.628326 117.169220,446.628326   C117.169220,446.628326 117.443207,446.867371 117.443207,446.867371  z"/>
<path fill="#F1D869" opacity="1.000000" stroke="none" d=" M196.132721,255.992462   C199.290482,251.780640 202.733734,247.468063 206.562927,243.530823   C212.387558,237.541901 218.479691,231.813156 224.728333,225.730545   C222.499268,234.189499 220.061096,242.910477 217.416794,251.568512   C217.116547,252.551620 215.738770,253.734894 214.723022,253.883255   C208.701538,254.762894 202.639465,255.364624 196.132721,255.992462  z"/>
<path fill="#090704" opacity="1.000000" stroke="none" d=" M150.211060,324.141693   C150.222870,324.565765 149.922913,325.173065 149.317444,325.926605   C149.307724,325.490204 149.603500,324.907562 150.211060,324.141693  z"/>
<path fill="#CABA7D" opacity="1.000000" stroke="none" d=" M342.015350,769.413086   C341.369080,767.879639 340.159607,766.347046 340.157410,764.812683   C340.056335,694.328003 340.088318,623.843201 339.983948,553.358582   C339.977692,549.143616 341.484924,547.948120 345.543030,547.955872   C400.864166,548.062012 456.185577,548.028137 511.506836,548.094543   C513.039673,548.096375 514.571655,548.828125 516.168823,549.642639   C516.233582,550.065796 516.056519,550.007385 515.665161,549.711914   C512.480347,549.369446 509.684235,549.220337 506.894165,549.295471   C499.545013,549.493286 492.198517,549.788513 484.392792,550.000122   C450.789001,549.891296 417.643372,549.815002 384.497711,549.777161   C379.675537,549.771667 374.853149,549.949646 369.633575,549.760315   C360.014404,549.477844 350.792480,549.477844 341.523926,549.477844   C341.410645,551.173889 341.287506,552.157837 341.287384,553.141846   C341.278137,623.856018 341.274994,694.570251 341.308807,765.284424   C341.309418,766.541687 341.763641,767.798645 342.036133,769.144409   C342.066071,769.233032 342.015350,769.413086 342.015350,769.413086  z"/>
<path fill="#F6DD79" opacity="1.000000" stroke="none" d=" M516.323120,550.039917   C516.942810,551.414856 517.935120,552.815186 517.936584,554.216614   C518.011841,624.695007 518.008301,695.173462 517.958252,765.651855   C517.957275,767.015503 517.300964,768.378662 516.519897,769.665405   C516.089294,769.588684 515.969421,769.271912 516.137634,768.806458   C516.333374,696.382629 516.362061,624.424316 516.374756,552.465942   C516.374878,551.646423 516.167175,550.826904 516.056519,550.007385   C516.056519,550.007385 516.233582,550.065796 516.323120,550.039917  z"/>
<path fill="#F9DE73" opacity="1.000000" stroke="none" d=" M514.992432,770.165527   C513.239136,770.445251 511.485992,770.968201 509.732452,770.969604   C455.807404,771.011841 401.882355,771.012146 347.957306,770.964722   C346.060089,770.963074 344.163330,770.409363 342.140869,769.763062   C342.015350,769.413086 342.066071,769.233032 342.494446,769.243713   C395.973602,769.266052 449.024384,769.273010 502.075195,769.297974   C506.394440,769.300049 510.713623,769.425659 514.985107,769.659546   C514.937439,769.825195 514.992432,770.165466 514.992432,770.165527  z"/>
<path fill="#CABA7D" opacity="1.000000" stroke="none" d=" M515.289673,770.101013   C514.992432,770.165466 514.937439,769.825195 515.203125,769.536743   C515.635681,769.256226 515.802551,769.264038 515.969421,769.271912   C515.969421,769.271912 516.089294,769.588684 516.135986,769.751343   C515.984070,769.954773 515.785461,769.995667 515.289673,770.101013  z"/>
<path fill="#040301" opacity="1.000000" stroke="none" d=" M243.989716,427.114380   C256.266266,449.149719 244.497208,475.108002 221.131012,480.556244   C206.307526,484.012573 191.805130,478.185333 182.802734,465.332367   C175.006271,454.201141 175.008408,437.629822 182.807907,425.793976   C190.918564,413.485962 205.742249,407.016663 219.998444,410.083466   C230.161835,412.269806 238.235443,417.862366 243.989716,427.114380  z"/>
<path fill="#747371" opacity="1.000000" stroke="none" d=" M117.604942,446.799530   C117.443207,446.867371 117.169220,446.628326 117.169220,446.628326   C117.169220,446.628326 117.240898,446.272491 117.409134,446.209229   C117.849716,446.273895 117.912819,446.469147 117.604942,446.799530  z"/>
<path fill="#040301" opacity="1.000000" stroke="none" d=" M645.452820,493.342712   C667.108032,480.776581 694.450073,493.152100 699.124451,517.242188   C701.869812,531.390869 697.363708,543.427246 686.206970,552.355713   C674.668518,561.589600 661.503113,563.011841 648.225830,556.644104   C635.339600,550.463928 628.405701,539.760010 627.927246,525.272522   C627.468140,511.371155 633.670288,501.004364 645.452820,493.342712  z"/>
<path fill="#010100" opacity="1.000000" stroke="none" d=" M516.137634,768.806458   C515.802551,769.264038 515.635681,769.256226 515.250854,769.371094   C510.713623,769.425659 506.394440,769.300049 502.075195,769.297974   C449.024384,769.273010 395.973602,769.266052 342.464508,769.155090   C341.763641,767.798645 341.309418,766.541687 341.308807,765.284424   C341.274994,694.570251 341.278137,623.856018 341.287384,553.141846   C341.287506,552.157837 341.410645,551.173889 341.523926,549.477844   C350.792480,549.477844 360.014404,549.477844 369.614563,550.223633   C369.992828,574.074707 369.992828,597.179993 369.992828,620.340637   C408.549957,620.340637 446.600098,620.340637 484.850952,620.340637   C484.850952,596.668152 484.850952,573.356567 484.850952,550.044983   C492.198517,549.788513 499.545013,549.493286 506.894165,549.295471   C509.684235,549.220337 512.480347,549.369446 515.665161,549.711914   C516.167175,550.826904 516.374878,551.646423 516.374756,552.465942   C516.362061,624.424316 516.333374,696.382629 516.137634,768.806458  z"/>
<path fill="#FFFFFF" opacity="1.000000" stroke="none" d=" M484.392792,550.000122   C484.850952,573.356567 484.850952,596.668152 484.850952,620.340637   C446.600098,620.340637 408.549957,620.340637 369.992828,620.340637   C369.992828,597.179993 369.992828,574.074707 370.011841,550.506104   C374.853149,549.949646 379.675537,549.771667 384.497711,549.777161   C417.643372,549.815002 450.789001,549.891296 484.392792,550.000122  z"/>
</svg>